<svg xmlns="http://www.w3.org/2000/svg" width="1080" height="256" fill="none" viewBox="0 0 1080 256">
<!-- SVG created with Arrow, by QuiverAI (https://quiver.ai) -->
  <path d="m132.5 36.57c-9.56 15.64-26.75 26.37-39.91 30.49 16.12-11.9 39.12-28.45 38.13-61.06-12.96 25.48-37.26 40.73-69.41 58.36-15.5 8.45-25.23 19.91-21.58 40.35-6.82 9.11-10.62 19.31-12.49 28.48l-1.9 0.14c-1.51 8.98-2.18 15.61-2.49 19.59-0.21 2.96 1.88 5.9 2.28 8 0.65 3.3-1.67 8.96-1.89 15.57-0.21 6.29 3.5 17.35 3.72 27.42 0.12 5.77-0.22 11.56-0.57 19.19-0.19 4.49 5.4 19.13 19.54 26.9l-0.67-25.84c6.55-10.39 13.14-13.05 19.37-14.76l-0.11 40.6c22.71-7.16 42.62-17.83 59.91-39.64 5.3-6.56 4.07-18.38 6.78-26.85 7.15 11.3 16.82 10.38 32.6 9.85-8.82-13.28-9.81-21.37-8.23-35.38 1.36-12.4-0.59-18.8-2.87-25.79 16.93 3.96 31.26-3.76 42.52-14.63-9.36 1.63-17.39-0.45-25.92-2.84 16.52-0.63 32.88-8.46 46.13-25.54-10.51 5.08-22.68 7.58-38.01 8.58 21.7-4.98 44.6-14.61 53.8-45.42-14.06 13.67-30.49 20.87-48.83 23.87 20.05-8.88 50.85-23.02 50.85-60.21-17.91 24.91-33.25 31.72-61.81 42.73-20.61 7.98-34.8 10.18-47.76 25.39-1.65 1.34-4.43-0.26-6.38-0.93 6.04-5.7 8.44-11.11 10-17.74-7.21 6.81-15.97 9.88-27.27 13.01 11.9-7.93 31.1-17.47 32.47-41.89z" fill="url(#paint0_linear_102_3975)"/>
  <path d="m120.1 91.11c-10.2-4.35-17.19-6.3-29.35-6.3-27.49 0-58.58 20.96-60.81 55.09l2.94 2.51c3.2-12.24 7.29-21.33 12.22-23.13 3.23 2.9 4.7 8.35 6 12.43 6.87-8.52 10.55-10.52 18.6-14.47-1.99 9.47-3.5 17.04-1.55 27.68 22.77-4.29 48.83-13.53 49.43-34.65 0.22-7.44 0.88-12.23 2.52-19.16z" fill="url(#paint1_linear_102_3975)"/>
  <path d="m173.9 60.42c-8.76 4.23-21.98 6.66-30.57 10.99-13.34 5.83-23.18 16.46-24.17 37.67-0.71 16.2-7.96 28.04-42.74 39.18l-11.12 2.64c-8.34 2.91-11.44 7.13-15.24 14.91-3.56-10.4-6.84-12.95-21.13-24.68l-0.21 12.68c10.26 6.98 18 17.08 17.57 36.1l2.96 8.45 6.82-8.75c-1.12-13.77 4.88-25.55 19.39-29.49 10.85-3.16 21.69-4.39 34.49-12.6l-6.27 7.19c-1.83 13.25-13.42 27.46-33.63 28.91l-0.3 58.5 6.82-2.96c2.4-18.18 8.4-36.9 20.53-46.54 12.16-9.64 19.15-23.51 25.06-54.58 3.12-6.81 5.97-13.21 7.69-30.93 1.51-12.9 10-21 24.2-27.53 8.98-4.22 16.5-8.76 19.85-19.16z" fill="url(#paint2_linear_102_3975)"/>
  <path d="m136.8 102c3.12-9.11 12.47-15.82 36.38-24.6-3.12 9.62-10.64 15.75-23.73 19.38-4.63 1.33-8.37 2.22-12.65 5.22z" fill="url(#paint3_linear_102_3975)"/>
  <path d="m135 114.1c2.33-7.03 7.15-8.7 16.02-10.24 7.53-1.34 11.1-3.85 16.4-6.11-3.97 7.2-9.67 11.42-17.41 11.94-5.96 0.46-9.61 1.21-15.01 4.41z" fill="url(#paint4_linear_102_3975)"/>
  <path d="m132.5 126.2c3.96-5.41 6.43-5.41 12.74-5.41 5.59 0 9.2-2.2 12.9-4.75-5.59-1.54-17.91-3-25.64 10.16z" fill="url(#paint5_linear_102_3975)"/>
  <path d="m179 57.91c19.85-7.25 33.14-12.13 48.55-30.2-9.46 20.96-25.78 31.92-53.66 39.85 2.46-2.96 3.96-5.41 5.11-9.65z" fill="url(#paint6_linear_102_3975)"/>
  <path d="m180 83.19 42.05-16.13c-10.8 13.28-24.35 20.09-48.25 24.36l6.2-8.23z" fill="url(#paint7_linear_102_3975)"/>
  <path d="m169.3 104.5 33.9-7.93c-9 9.11-19.03 12.06-36.88 10.58l2.98-2.65z" fill="url(#paint8_linear_102_3975)"/>
  <path d="m161.4 120.4 21.01 0.96c-7.21 4.22-14.73 4.22-22.25 0l1.24-0.96z" fill="url(#paint9_linear_102_3975)"/>
  <path d="m150 133.2c1.74 7.94-0.49 18.5-2.48 33.62-1.37 9.36 0.46 15.3 3.92 21.93-8.49-2.96-17.95-5.91-16-35.45-7.48 10.4-9.2 29.54-11.15 46.18-1.65 11.82-19.96 27.96-43.86 37.07 1.95-14.63 6.81-31.27 18.97-42.23 12.8-11.48 18.37-23.79 23.95-50.82 2.66-6.81 10.14-11.03 26.65-10.3z" fill="url(#paint10_linear_102_3975)"/>
  <path d="m31.12 174.2c1.83 4.75 3.29 7.5 6.17 11l0.18 51.33-4.86-11.83 0.28-41.2c-1.77-3.17-2.2-5.61-1.77-9.3z" fill="url(#paint11_linear_102_3975)"/>
  <path d="m74.43 185.8v52.96l2.66-1.54c1.83-17.14 9.62-36.77 20.32-47.29 7.3-6.81 12.7-13.42 16.4-23.57-7.52 14.21-19.84 26.5-31.14 23.07-3.96-1.19-5.33-1.7-8.24-3.63z" fill="url(#paint12_linear_102_3975)"/>
  <path d="m33.58 149.1-3.46-5.83-0.43 9.59c7.52 3.25 14.51 9.33 18.98 18.03-1.51-10.1-5.49-16.73-15.09-21.79z" fill="url(#paint13_linear_102_3975)"/>
  <path d="m46.46 131.2-2.23 17.63c3.96 2.95 5.69 6.25 6.48 9.65 2.95-5.65 6.92-8.45 12.22-10.7-0.99-6.68-0.99-10.69 0-19.15-4.47 3.5-7.92 8.02-12.91 12.47l-3.56-9.9z" fill="url(#paint14_linear_102_3975)"/>
  <path d="m61.94 97.19 3.23 0.52c11.77 4.77 13.02 15.17 9.26 35.11l-0.27 0.83c13.25-2 31.1-16.21 31.1-27.4 0-7.47-4.44-11.19-10.64-12.93 3.46-3.69 9.02-5.68 19.87-4.69-8.2-2.95-15.72-3.47-22.78-2.95-8.76 1.47-18.21 6.21-26.54 12.03-7.25 6.11-11.98 13.55-12.98 21.48-1.47-7.08 1.76-15.37 9.75-22z" fill="url(#paint15_linear_102_3975)"/>
  <defs>
    <linearGradient id="paint0_linear_102_3975" x1="47.21" x2="206.1" y1="39.32" y2="201.3" gradientUnits="userSpaceOnUse">
      <stop stop-color="#2B6BA6" offset="0"/>
      <stop stop-color="#3380C2" offset=".2448"/>
      <stop stop-color="#4759A6" offset=".5417"/>
      <stop stop-color="#6447A8" offset=".7969"/>
      <stop stop-color="#B13BAE" offset="1"/>
    </linearGradient>
    <linearGradient id="paint1_linear_102_3975" x1="74.96" x2="74.96" y1="84.81" y2="144.9" gradientUnits="userSpaceOnUse">
      <stop stop-color="#A7F0F6" offset="0"/>
      <stop stop-color="#5DA3D3" offset="1"/>
    </linearGradient>
    <linearGradient id="paint2_linear_102_3975" x1="101.3" x2="101.3" y1="60.42" y2="242.1" gradientUnits="userSpaceOnUse">
      <stop stop-color="#8DE6F1" offset="0"/>
      <stop stop-color="#6A76C2" offset=".625"/>
      <stop stop-color="#50479A" offset="1"/>
    </linearGradient>
    <linearGradient id="paint3_linear_102_3975" x1="155" x2="155" y1="77.36" y2="102" gradientUnits="userSpaceOnUse">
      <stop stop-color="#A7F0F6" offset="0"/>
      <stop stop-color="#92B1D6" offset="1"/>
    </linearGradient>
    <linearGradient id="paint4_linear_102_3975" x1="151.2" x2="151.2" y1="97.71" y2="114.1" gradientUnits="userSpaceOnUse">
      <stop stop-color="#A7F0F6" offset="0"/>
      <stop stop-color="#92B1D6" offset="1"/>
    </linearGradient>
    <linearGradient id="paint5_linear_102_3975" x1="145.3" x2="145.3" y1="115.1" y2="126.2" gradientUnits="userSpaceOnUse">
      <stop stop-color="#A7F0F6" offset="0"/>
      <stop stop-color="#92B1D6" offset="1"/>
    </linearGradient>
    <linearGradient id="paint6_linear_102_3975" x1="198.4" x2="198.4" y1="27.71" y2="67.56" gradientUnits="userSpaceOnUse">
      <stop stop-color="#B363A7" offset="0"/>
      <stop stop-color="#B363A7" stop-opacity=".25" offset="1"/>
    </linearGradient>
    <linearGradient id="paint7_linear_102_3975" x1="197.9" x2="197.9" y1="67.06" y2="91.42" gradientUnits="userSpaceOnUse">
      <stop stop-color="#5A308A" offset="0"/>
      <stop stop-color="#5A308A" stop-opacity=".25" offset="1"/>
    </linearGradient>
    <linearGradient id="paint8_linear_102_3975" x1="184.7" x2="184.7" y1="96.53" y2="107.5" gradientUnits="userSpaceOnUse">
      <stop stop-color="#5A308A" offset="0"/>
      <stop stop-color="#5A308A" stop-opacity=".25" offset="1"/>
    </linearGradient>
    <linearGradient id="paint9_linear_102_3975" x1="171.3" x2="171.3" y1="120.4" y2="124.5" gradientUnits="userSpaceOnUse">
      <stop stop-color="#5A308A" offset="0"/>
      <stop stop-color="#5A308A" stop-opacity=".25" offset="1"/>
    </linearGradient>
    <linearGradient id="paint10_linear_102_3975" x1="115.9" x2="115.9" y1="133.1" y2="236.5" gradientUnits="userSpaceOnUse">
      <stop stop-color="#4B47AE" offset="0"/>
      <stop stop-color="#B13BAE" offset="1"/>
    </linearGradient>
    <linearGradient id="paint11_linear_102_3975" x1="34.4" x2="34.4" y1="174.2" y2="236.5" gradientUnits="userSpaceOnUse">
      <stop stop-color="#A7F0F6" offset="0"/>
      <stop stop-color="#81B0D8" offset="1"/>
    </linearGradient>
    <linearGradient id="paint12_linear_102_3975" x1="92.47" x2="92.47" y1="166.3" y2="238.7" gradientUnits="userSpaceOnUse">
      <stop stop-color="#A7F0F6" offset="0"/>
      <stop stop-color="#92B1D6" offset="1"/>
    </linearGradient>
    <linearGradient id="paint13_linear_102_3975" x1="39.18" x2="39.18" y1="143.3" y2="170.9" gradientUnits="userSpaceOnUse">
      <stop stop-color="#A7F0F6" offset="0"/>
      <stop stop-color="#92B1D6" offset="1"/>
    </linearGradient>
    <linearGradient id="paint14_linear_102_3975" x1="53.58" x2="53.58" y1="128.7" y2="158.5" gradientUnits="userSpaceOnUse">
      <stop stop-color="#A7F0F6" offset="0"/>
      <stop stop-color="#81B0D8" offset="1"/>
    </linearGradient>
    <linearGradient id="paint15_linear_102_3975" x1="83.34" x2="83.34" y1="85.39" y2="133.6" gradientUnits="userSpaceOnUse">
      <stop stop-color="#A7F0F6" offset="0"/>
      <stop stop-color="#A7F0F6" stop-opacity=".25" offset="1"/>
    </linearGradient>
  
    <linearGradient id="textGrad" x1="0" x2="0" y1="0" y2="1" gradientUnits="objectBoundingBox">
      <stop stop-color="#0082BA" offset="0"/>
      <stop stop-color="#5660AA" offset=".5"/>
      <stop stop-color="#593693" offset="1"/>
    </linearGradient>
  </defs>

  <g transform="translate(-190, -530) scale(5)">
    <path d="m112 125.3c-1.75 2.04-1.99 3.4-1.99 5.85v15.89c0 3.05 0.07 6.42 2.12 7.84h-8c1.53-2.2 1.6-3.94 1.6-6.65v-14.04l-6.76 20.69h-0.99l-7-20.52v11.7c0 3.87 0.27 6.1 2.32 8.82h-7.93c2.05-2.72 2.32-4.95 2.32-8.82l0.04-16.37-1.5-4.39h8.25l5.55 16.69 4.9-16.69h7.07z" fill="url(#textGrad)"/>
    <path d="m131.8 125.3 0.4 7.29c-2.05-3.71-3.1-4.69-7-4.69h-3.42v7.36h7.93v2.44c-1.05 0.98-1.91 1.15-3.55 1.15h-4.38v8.64c0 3.29 0.68 3.98 3.9 3.98 3.32 0 4.96-1.78 6.49-4.99l-0.82 8.32h-16.33v-25.11l-0.82-4.39h17.6z" fill="url(#textGrad)"/>
    <path d="m143.8 125.3c6 0 9.7 1.42 9.7 6.38 0 3.33-2.79 5.25-5.02 6.02 1.12 5.5 3.42 11.91 7.92 16.69l-7-0.08c-2.92-3.45-4.12-9.61-4.94-15.46l-3.26-0.09v8.98c0 3.04 0.27 4.86 1.4 7.06h-8.46c1.13-2.2 1.4-4.02 1.4-7.06v-16.06c0-2.45-0.34-4.34-1.64-6.38h9.9zm-0.5 10.38c3.18 0 4.48-1.06 4.48-4 0-2.59-1.54-3.78-4.48-3.78-2.05 0-2.2 1.19-2.2 3.78 0 2.71 0.15 4 2.2 4z" fill="url(#textGrad)"/>
    <path d="m173.9 125c1.13 1.18 0.62 5.04-1.2 10.89h-1.3c-0.14-5.05-1.27-7.97-4.69-7.97-4.6 0-5.1 5.02-5.1 9.64 0 8.35 3.52 14.62 9.52 13.85l3.07-0.4c0 1.91-0.85 3.89-4.75 3.89-8.56 0-13.36-7.92-13.36-16.27s3.52-13.31 11.12-13.31c2.56 0 4.09 0.41 5.39 0.86l1.3-1.18z" fill="url(#textGrad)"/>
    <path d="m197.7 125.3c-1.53 2.2-2.13 3.93-2.13 6.99v12.66c0 6.76-2.69 10.24-8.45 10.24-7 0-9.56-3.87-9.56-10.16l0.17-13.88c0-2.45-0.27-3.81-1.5-5.85h8.46c-1.13 2.2-1.4 3.93-1.4 6.99v12.66c0 4.23 1.4 6.44 4.63 6.44 3.22 0 4.08-2.45 4.08-6.8v-12.39c0-3.05-0.41-4.7-1.53-6.9h7.23z" fill="url(#textGrad)"/>
    <path d="m209.8 125.3c6 0 10.21 0.99 10.21 6.38 0 3.33-2.79 5.25-5.02 6.02 1.12 5.5 3.42 11.91 7.92 16.69l-7-0.08c-2.92-3.45-4.12-9.61-4.94-15.46l-3.26-0.09v8.98c0 3.04 0.27 4.86 1.4 7.06h-8.46c1.13-2.2 1.4-4.02 1.4-7.06v-16.06c0-2.45-0.34-4.34-1.64-6.38h9.39zm0.51 10.38c3.17 0 4.47-1.06 4.47-4 0-2.59-1.53-3.78-4.47-3.78-2.05 0-2.56 0.8-2.56 3.78 0 2.71 0.51 4 2.56 4z" fill="url(#textGrad)"/>
    <path d="m221.1 125.3h8.46c-0.13 0.86-0.06 1.84 0.2 3.03l4.05 10.52 3.62-9.16c0.61-1.44 0.44-2.97-0.42-4.39h6.99l-7.59 16.69v5.75c0 3.04 0.27 4.86 1.22 7.06h-8.7c0.95-2.2 1.22-4.02 1.22-7.06v-4.11l-5.93-14.67-3.12-3.66z" fill="url(#textGrad)"/>
  </g>

</svg>